<svg width="200" height="200" viewBox="0 0 200 200" fill="none" xmlns="http://www.w3.org/2000/svg">
<g clip-path="url(#clip0_662_79889)">
<path d="M91.9987 49.1668C94.2968 49.1668 96.5725 49.6195 98.6957 50.4989C100.819 51.3784 102.748 52.6674 104.373 54.2925C105.998 55.9175 107.287 57.8467 108.167 59.9699C109.046 62.0931 109.499 64.3687 109.499 66.6668C109.499 68.965 109.046 71.2406 108.167 73.3638C107.287 75.487 105.998 77.4162 104.373 79.0412C102.748 80.6662 100.819 81.9553 98.6957 82.8347C96.5725 83.7142 94.2968 84.1668 91.9987 84.1668C87.3574 84.1668 82.9062 82.3231 79.6243 79.0412C76.3424 75.7593 74.4987 71.3081 74.4987 66.6668C74.4987 62.0255 76.3424 57.5743 79.6243 54.2925C82.9062 51.0106 87.3574 49.1668 91.9987 49.1668ZM91.9987 124.167C116.749 124.167 142.832 136.334 142.832 141.667V150.834H41.1654V141.667C41.1654 136.334 67.2487 124.167 91.9987 124.167ZM91.9987 33.3335C73.582 33.3335 58.6654 48.2502 58.6654 66.6668C58.6654 85.0835 73.582 100 91.9987 100C110.415 100 125.332 85.0835 125.332 66.6668C125.332 48.2502 110.415 33.3335 91.9987 33.3335ZM91.9987 108.334C69.7487 108.334 25.332 119.5 25.332 141.667V158.334C25.332 162.917 29.082 166.667 33.6654 166.667H150.332C154.915 166.667 158.665 162.917 158.665 158.334V141.667C158.665 119.5 114.249 108.334 91.9987 108.334Z" fill="#FFD300"/>
<path d="M107.999 49.1668C110.297 49.1668 112.572 49.6195 114.696 50.4989C116.819 51.3784 118.748 52.6674 120.373 54.2925C121.998 55.9175 123.287 57.8467 124.167 59.9699C125.046 62.0931 125.499 64.3687 125.499 66.6668C125.499 68.965 125.046 71.2406 124.167 73.3638C123.287 75.487 121.998 77.4162 120.373 79.0412C118.748 80.6662 116.819 81.9553 114.696 82.8347C112.572 83.7142 110.297 84.1668 107.999 84.1668C103.357 84.1668 98.9062 82.3231 95.6243 79.0412C92.3424 75.7593 90.4987 71.3081 90.4987 66.6668C90.4987 62.0255 92.3424 57.5743 95.6243 54.2925C98.9062 51.0106 103.357 49.1668 107.999 49.1668ZM107.999 124.167C132.749 124.167 158.832 136.334 158.832 141.667V150.834H57.1654V141.667C57.1654 136.334 83.2487 124.167 107.999 124.167ZM107.999 33.3335C89.582 33.3335 74.6654 48.2502 74.6654 66.6668C74.6654 85.0835 89.582 100 107.999 100C126.415 100 141.332 85.0835 141.332 66.6668C141.332 48.2502 126.415 33.3335 107.999 33.3335ZM107.999 108.334C85.7487 108.334 41.332 119.5 41.332 141.667V158.334C41.332 162.917 45.082 166.667 49.6654 166.667H166.332C170.915 166.667 174.665 162.917 174.665 158.334V141.667C174.665 119.5 130.249 108.334 107.999 108.334Z" fill="#111111"/>
</g>
<defs>
<clipPath id="clip0_662_79889">
<rect width="200" height="200" fill="white"/>
</clipPath>
</defs>
</svg>
