<svg width="200" height="200" viewBox="0 0 200 200" fill="none" xmlns="http://www.w3.org/2000/svg">
<g clip-path="url(#clip0_662_79894)">
<path d="M137.75 136.97L94 161.579L50.25 136.97V110.969L37.75 104.024V144.28L94 175.921L150.25 144.28V104.024L137.75 110.969V136.97Z" fill="#FFD300"/>
<path d="M94 17.9609L6.5 63.3312V74.1648L94 122.775L169 81.1094V115.626H181.5V63.3312L94 17.9609ZM156.5 73.7543L144 80.6984L94 108.478L44 80.6984L31.5 73.7543L22.8363 68.941L94 32.0414L165.164 68.941L156.5 73.7543Z" fill="#FFD300"/>
<path d="M149.75 136.97L106 161.579L62.25 136.97V110.969L49.75 104.024V144.28L106 175.921L162.25 144.28V104.024L149.75 110.969V136.97Z" fill="black"/>
<path d="M106 17.9609L18.5 63.3312V74.1648L106 122.775L181 81.1094V115.626H193.5V63.3312L106 17.9609ZM168.5 73.7543L156 80.6984L106 108.478L56 80.6984L43.5 73.7543L34.8363 68.941L106 32.0414L177.164 68.941L168.5 73.7543Z" fill="black"/>
</g>
<defs>
<clipPath id="clip0_662_79894">
<rect width="200" height="200" fill="white"/>
</clipPath>
</defs>
</svg>
