<svg width="200" height="200" viewBox="0 0 200 200" fill="none" xmlns="http://www.w3.org/2000/svg">
<g clip-path="url(#clip0_662_79910)">
<path d="M91.0078 99.9994V79.166L153.508 16.666L174.341 37.4994L111.841 99.9994H91.0078Z" stroke="#FFD300" stroke-width="16.6667" stroke-linecap="round" stroke-linejoin="round"/>
<path d="M57.6719 99.999H28.5052C22.9799 99.999 17.6808 102.194 13.7738 106.101C9.86681 110.008 7.67188 115.307 7.67188 120.832C7.67188 126.358 9.86681 131.657 13.7738 135.564C17.6808 139.471 22.9799 141.666 28.5052 141.666H153.505C159.031 141.666 164.33 143.861 168.237 147.768C172.144 151.675 174.339 156.974 174.339 162.499C174.339 168.024 172.144 173.323 168.237 177.23C164.33 181.137 159.031 183.332 153.505 183.332H66.0052" stroke="#FFD300" stroke-width="16.6667" stroke-linecap="round" stroke-linejoin="round"/>
<path d="M108.008 99.9994V79.166L170.508 16.666L191.341 37.4994L128.841 99.9994H108.008Z" stroke="black" stroke-width="16.6667" stroke-linecap="round" stroke-linejoin="round"/>
<path d="M74.6719 99.999H45.5052C39.9799 99.999 34.6808 102.194 30.7738 106.101C26.8668 110.008 24.6719 115.307 24.6719 120.832C24.6719 126.358 26.8668 131.657 30.7738 135.564C34.6808 139.471 39.9799 141.666 45.5052 141.666H170.505C176.031 141.666 181.33 143.861 185.237 147.768C189.144 151.675 191.339 156.974 191.339 162.499C191.339 168.024 189.144 173.323 185.237 177.23C181.33 181.137 176.031 183.332 170.505 183.332H83.0052" stroke="black" stroke-width="16.6667" stroke-linecap="round" stroke-linejoin="round"/>
</g>
<defs>
<clipPath id="clip0_662_79910">
<rect width="200" height="200" fill="white"/>
</clipPath>
</defs>
</svg>
